<svg width="20" height="20" viewBox="0 0 20 20" fill="none" xmlns="http://www.w3.org/2000/svg">
<path d="M14.2 12.375C13.4487 12.375 12.7656 12.6739 12.2622 13.1594L9.26758 11.2958C9.43844 10.8981 9.53333 10.46 9.53333 10C9.53333 9.54 9.43844 9.10191 9.26755 8.70419L12.2621 6.84066C12.7656 7.32613 13.4487 7.625 14.2 7.625C15.7439 7.625 17 6.36331 17 4.8125C17 3.26169 15.7439 2 14.2 2C12.6561 2 11.4 3.26169 11.4 4.8125C11.4 5.27034 11.5095 5.70297 11.7036 6.08537L8.77911 7.90531C8.17941 7.18081 7.27579 6.71875 6.26667 6.71875C4.46543 6.71875 3 8.19072 3 10C3 11.8093 4.46543 13.2812 6.26667 13.2812C7.27579 13.2812 8.17941 12.8192 8.77911 12.0947L11.7036 13.9146C11.5095 14.297 11.4 14.7297 11.4 15.1875C11.4 16.7383 12.6561 18 14.2 18C15.7439 18 17 16.7383 17 15.1875C17 13.6367 15.7439 12.375 14.2 12.375Z" fill="url(#paint0_linear)"/>
<defs>
<linearGradient id="paint0_linear" x1="3" y1="2" x2="18.8584" y2="15.8761" gradientUnits="userSpaceOnUse">
<stop stop-color="#67FFBE"/>
<stop offset="1" stop-color="#41DC9A"/>
</linearGradient>
</defs>
</svg>
