<svg width="20" height="20" viewBox="0 0 20 20" fill="none" xmlns="http://www.w3.org/2000/svg">
<path d="M10.0011 3C6.13642 3 3.00111 6.13135 3.00111 9.99632C3.00111 13.865 6.13642 17 10.0011 17C13.8679 17 17.0006 13.865 17.0006 9.99632C17.0006 6.13135 13.8679 3 10.0011 3ZM10.5 13.8913C10.3374 14.036 10.149 14.1087 9.93552 14.1087C9.71468 14.1087 9.52205 14.0373 9.35763 13.8942C9.19294 13.7514 9.11044 13.5514 9.11044 13.2944C9.11044 13.0665 9.19028 12.8746 9.34946 12.7192C9.50863 12.5637 9.70389 12.4859 9.93552 12.4859C10.1634 12.4859 10.3553 12.5637 10.511 12.7192C10.6665 12.8746 10.7445 13.0665 10.7445 13.2944C10.7442 13.5477 10.6628 13.7467 10.5 13.8913ZM12.5272 8.86557C12.4023 9.0972 12.2539 9.29693 12.0818 9.46534C11.9103 9.63372 11.6017 9.91673 11.1564 10.3146C11.0336 10.4269 10.9347 10.5255 10.8607 10.6103C10.7867 10.6954 10.7313 10.7731 10.6952 10.8438C10.6588 10.9144 10.6309 10.985 10.6111 11.0556C10.5914 11.126 10.5616 11.2501 10.5213 11.4274C10.4528 11.8037 10.2375 11.9919 9.87567 11.9919C9.68752 11.9919 9.52941 11.9305 9.40055 11.8074C9.2722 11.6843 9.20818 11.5017 9.20818 11.2593C9.20818 10.9555 9.25535 10.6922 9.34943 10.4696C9.44298 10.2469 9.56815 10.0516 9.72363 9.88325C9.87937 9.71487 10.0891 9.5151 10.3534 9.28347C10.585 9.08083 10.7524 8.92801 10.8554 8.82495C10.9587 8.72167 11.0454 8.60678 11.1158 8.48028C11.1867 8.35352 11.2215 8.21623 11.2215 8.06789C11.2215 7.77829 11.1142 7.53428 10.8987 7.33533C10.6834 7.13638 10.4056 7.03676 10.0654 7.03676C9.66725 7.03676 9.37423 7.13716 9.18607 7.33796C8.99791 7.53875 8.83903 7.83441 8.70858 8.22521C8.58526 8.6342 8.35178 8.83866 8.00841 8.83866C7.80576 8.83866 7.63476 8.76725 7.49536 8.62441C7.35622 8.48158 7.28665 8.32691 7.28665 8.16038C7.28665 7.81674 7.39707 7.46837 7.61764 7.11553C7.83847 6.76269 8.16048 6.47044 8.58393 6.23907C9.00712 6.00744 9.50124 5.89148 10.0654 5.89148C10.5901 5.89148 11.0531 5.98845 11.4547 6.18215C11.8563 6.37555 12.1667 6.63882 12.3857 6.97189C12.6044 7.30469 12.714 7.66652 12.714 8.05732C12.7145 8.36435 12.6521 8.63394 12.5272 8.86557Z" fill="#9595AD"/>
</svg>
