<svg width="20" height="20" viewBox="0 0 20 20" fill="none" xmlns="http://www.w3.org/2000/svg">
<path fill-rule="evenodd" clip-rule="evenodd" d="M2.53843 4.10982C2.5 4.30302 2.5 4.53534 2.5 5C2.5 5.46466 2.5 5.69698 2.53843 5.89018C2.69624 6.68356 3.31644 7.30376 4.10982 7.46157C4.30302 7.5 4.53534 7.5 5 7.5H6.66667C7.13132 7.5 7.36365 7.5 7.55685 7.46157C8.35023 7.30376 8.97042 6.68356 9.12824 5.89018C9.16667 5.69698 9.16667 5.46466 9.16667 5C9.16667 4.53534 9.16667 4.30302 9.12824 4.10982C8.97042 3.31644 8.35023 2.69624 7.55685 2.53843C7.36365 2.5 7.13132 2.5 6.66667 2.5H5C4.53534 2.5 4.30302 2.5 4.10982 2.53843C3.31644 2.69624 2.69624 3.31644 2.53843 4.10982ZM10.8718 14.1098C10.8333 14.303 10.8333 14.5353 10.8333 15C10.8333 15.4647 10.8333 15.697 10.8718 15.8902C11.0296 16.6836 11.6498 17.3038 12.4432 17.4616C12.6364 17.5 12.8687 17.5 13.3333 17.5H15C15.4647 17.5 15.697 17.5 15.8902 17.4616C16.6836 17.3038 17.3038 16.6836 17.4616 15.8902C17.5 15.697 17.5 15.4647 17.5 15C17.5 14.5353 17.5 14.303 17.4616 14.1098C17.3038 13.3164 16.6836 12.6962 15.8902 12.5384C15.697 12.5 15.4647 12.5 15 12.5H13.3333C12.8687 12.5 12.6364 12.5 12.4432 12.5384C11.6498 12.6962 11.0296 13.3164 10.8718 14.1098ZM10.8333 5.83334C10.8333 4.58718 10.8333 3.9641 11.1013 3.5C11.2768 3.19596 11.5293 2.94349 11.8333 2.76795C12.2974 2.5 12.9205 2.5 14.1667 2.5C15.4128 2.5 16.0359 2.5 16.5 2.76795C16.804 2.94349 17.0565 3.19596 17.2321 3.5C17.5 3.9641 17.5 4.58718 17.5 5.83333V7.5C17.5 8.74615 17.5 9.36923 17.2321 9.83333C17.0565 10.1374 16.804 10.3898 16.5 10.5654C16.0359 10.8333 15.4128 10.8333 14.1667 10.8333C12.9205 10.8333 12.2974 10.8333 11.8333 10.5654C11.5293 10.3898 11.2768 10.1374 11.1013 9.83333C10.8333 9.36923 10.8333 8.74616 10.8333 7.5V5.83334ZM2.76795 10.1667C2.5 10.6308 2.5 11.2539 2.5 12.5V14.1667C2.5 15.4128 2.5 16.0359 2.76795 16.5C2.94349 16.804 3.19596 17.0565 3.5 17.2321C3.9641 17.5 4.58718 17.5 5.83333 17.5C7.07949 17.5 7.70257 17.5 8.16667 17.2321C8.47071 17.0565 8.72318 16.804 8.89872 16.5C9.16667 16.0359 9.16667 15.4128 9.16667 14.1667V12.5C9.16667 11.2539 9.16667 10.6308 8.89872 10.1667C8.72318 9.86264 8.47071 9.61016 8.16667 9.43463C7.70257 9.16668 7.07949 9.16668 5.83333 9.16668C4.58718 9.16668 3.9641 9.16668 3.5 9.43463C3.19596 9.61016 2.94349 9.86264 2.76795 10.1667Z" fill="#9595AD"/>
</svg>
