<svg width="20" height="20" viewBox="0 0 20 20" fill="none" xmlns="http://www.w3.org/2000/svg">
<path fill-rule="evenodd" clip-rule="evenodd" d="M12.6108 9.16708C11.8617 9.86952 10.9448 10.2255 9.88599 10.2255C8.82739 10.2255 7.91064 9.8694 7.16138 9.1672C6.41211 8.46488 6.03223 7.60543 6.03223 6.61266C6.03223 5.62011 6.41211 4.76067 7.16125 4.05835C7.9104 3.35602 8.82703 3 9.88599 3C10.9447 3 11.8615 3.35602 12.6107 4.05823C13.36 4.76078 13.7397 5.62023 13.7397 6.61266C13.7397 7.60543 13.36 8.46476 12.6108 9.16708ZM16.4994 13.5865C16.5637 13.9232 16.6074 14.242 16.629 14.5343C16.6504 14.8199 16.6613 15.118 16.6614 15.4203C16.6614 16.2036 16.3959 16.8376 15.8722 17.3048C15.355 17.7662 14.671 18.0001 13.839 18.0001H6.13489C5.30286 18.0001 4.61865 17.7661 4.10156 17.3048C3.578 16.8373 3.3125 16.2034 3.3125 15.4204C3.3125 15.1195 3.32324 14.8216 3.34448 14.5346C3.36609 14.2416 3.40979 13.9227 3.47412 13.5865C3.53906 13.2473 3.62268 12.9267 3.72266 12.6336C3.82617 12.3305 3.9668 12.0315 4.1405 11.7448C4.32068 11.4473 4.53271 11.1884 4.77039 10.9751C5.01929 10.7518 5.32385 10.5724 5.67566 10.4419C6.02637 10.3116 6.41504 10.2456 6.83105 10.2456C6.99438 10.2456 7.15247 10.3084 7.45715 10.4946C7.64771 10.611 7.86743 10.7438 8.11023 10.8892C8.31958 11.0144 8.60352 11.1317 8.95386 11.2378C9.29639 11.3416 9.64368 11.3942 9.98657 11.3942C10.3295 11.3942 10.6769 11.3416 11.019 11.2378C11.3698 11.1316 11.6537 11.0143 11.8633 10.8891C12.1084 10.7423 12.328 10.6095 12.5157 10.4947C12.8208 10.3085 12.9788 10.2457 13.1421 10.2457C13.558 10.2457 13.9468 10.3116 14.2976 10.4418C14.6497 10.5726 14.9541 10.7519 15.2028 10.9749C15.4406 11.1881 15.6525 11.4472 15.8329 11.7448C16.0067 12.0315 16.1473 12.3306 16.2507 12.6335C16.3508 12.9266 16.4344 13.2473 16.4994 13.5865Z" fill="url(#paint0_linear)"/>
<defs>
<linearGradient id="paint0_linear" x1="3.3125" y1="3" x2="18.2112" y2="16.2586" gradientUnits="userSpaceOnUse">
<stop stop-color="#67FFBE"/>
<stop offset="1" stop-color="#41DC9A"/>
</linearGradient>
</defs>
</svg>
