<svg width="20" height="20" viewBox="0 0 20 20" fill="none" xmlns="http://www.w3.org/2000/svg">
<path d="M10.0106 3C13.6621 3 16.5 5.5 16.9788 9H11.2834V7.45451C11.2834 7.19746 11.1281 6.96523 10.8907 6.86654C10.6528 6.76796 10.3791 6.82261 10.1972 7.00462L7.65164 9.55015C7.40286 9.79892 7.40286 10.201 7.65164 10.4499L10.1972 12.9953C10.3791 13.1774 10.6528 13.2321 10.8907 13.1334C11.1281 13.0348 11.2834 12.8025 11.2834 12.5455V11H16.9788C16.5 14.5 13.6621 17 10.0106 17C6.14478 17 3.0107 13.8659 3.0107 10C3.0107 6.13408 6.14478 3 10.0106 3Z" fill="#9595AD"/>
</svg>
