<svg width="20" height="20" viewBox="0 0 20 20" fill="none" xmlns="http://www.w3.org/2000/svg">
<g clip-path="url(#clip0)">
<path d="M5.89329 14.1762H15.4297C15.4589 14.1762 15.4871 14.1721 15.5143 14.1656C15.5165 14.1656 15.5183 14.1659 15.5205 14.1659C15.724 14.1659 15.8894 14.0007 15.8894 13.797V3.36896C15.8895 3.16529 15.724 3 15.5205 3H15.4304H6.48338H5.89381C4.91175 3 4.11293 3.799 4.11293 4.78079C4.11293 4.79396 4.11552 4.80646 4.1168 4.81917C4.11552 5.7261 4.10427 14.0597 4.11552 15.1552C4.11482 15.1766 4.1122 15.1975 4.1122 15.2192C4.1122 16.1632 4.8514 16.9361 5.78119 16.9945C5.79984 16.9973 5.81813 17.0001 5.83748 17.0001H15.5204C15.724 17.0001 15.8894 16.8348 15.8894 16.6311V15.2423C15.8894 15.0387 15.724 14.8733 15.5204 14.8733C15.3169 14.8733 15.1515 15.0387 15.1515 15.2423V16.2622H5.89329C5.33261 16.2622 4.87493 15.817 4.85243 15.2619C4.85298 15.252 4.85478 15.2426 4.8546 15.2325C4.85423 15.2163 4.85368 15.1911 4.85332 15.1576C4.88557 14.6113 5.33902 14.1762 5.89329 14.1762Z" fill="#9595AD"/>
</g>
<defs>
<clipPath id="clip0">
<rect width="14" height="14" fill="white" transform="translate(3 3)"/>
</clipPath>
</defs>
</svg>
