<svg width="32" height="32" viewBox="0 0 32 32" fill="none" xmlns="http://www.w3.org/2000/svg">
<path fill-rule="evenodd" clip-rule="evenodd" d="M12 9H20C21.9422 9 23.1976 9.00425 24.1226 9.12861C24.9901 9.24524 25.262 9.43354 25.4142 9.58579C25.5665 9.73803 25.7548 10.0099 25.8714 10.8774C25.9154 11.2049 25.9444 11.5738 25.9635 12H6.03655C6.05561 11.5738 6.08458 11.2049 6.12861 10.8774C6.24524 10.0099 6.43354 9.73803 6.58579 9.58579C6.73803 9.43354 7.00993 9.24524 7.87741 9.12861C8.80242 9.00425 10.0578 9 12 9ZM6 16V17C6 18.9422 6.00425 20.1976 6.12861 21.1226C6.24524 21.9901 6.43354 22.262 6.58579 22.4142C6.73803 22.5665 7.00993 22.7548 7.87741 22.8714C8.80242 22.9958 10.0578 23 12 23H20C21.9422 23 23.1976 22.9958 24.1226 22.8714C24.9901 22.7548 25.262 22.5665 25.4142 22.4142C25.5665 22.262 25.7548 21.9901 25.8714 21.1226C25.9958 20.1976 26 18.9422 26 17V16H6ZM4 15C4 11.2288 4 9.34315 5.17157 8.17157C6.34315 7 8.22876 7 12 7H20C23.7712 7 25.6569 7 26.8284 8.17157C28 9.34315 28 11.2288 28 15V17C28 20.7712 28 22.6569 26.8284 23.8284C25.6569 25 23.7712 25 20 25H12C8.22876 25 6.34315 25 5.17157 23.8284C4 22.6569 4 20.7712 4 17V15Z" fill="#2E2E40"/>
</svg>
