<svg width="32" height="32" viewBox="0 0 32 32" fill="none" xmlns="http://www.w3.org/2000/svg">
<rect width="32" height="32" rx="8" fill="#E95050"/>
<path fill-rule="evenodd" clip-rule="evenodd" d="M23.5 9.99999H22H19.75V7.74999C19.75 7.33599 19.4147 7 19 7H13C12.5853 7 12.25 7.33599 12.25 7.74999V9.99999H10H8.49999C8.08525 9.99999 7.75 10.336 7.75 10.75C7.75 11.164 8.08521 11.5 8.49999 11.5H9.24998V22.75C9.24998 23.9905 10.2595 25 11.5 25H20.5C21.7405 25 22.75 23.9905 22.75 22.75V11.5H23.5C23.9147 11.5 24.25 11.164 24.25 10.75C24.25 10.336 23.9147 9.99999 23.5 9.99999ZM13.75 8.50001H18.25V10H13.75V8.50001ZM21.25 22.75C21.25 23.1633 20.914 23.5 20.5 23.5H11.5C11.086 23.5 10.75 23.1632 10.75 22.75V11.5H13H19H21.25V22.75H21.25ZM13.7499 13C13.3352 13 12.9999 13.336 12.9999 13.75V20.5C12.9999 20.914 13.3352 21.25 13.7499 21.25C14.1647 21.25 14.4999 20.914 14.4999 20.5V13.75C14.4999 13.336 14.1647 13 13.7499 13ZM17.4999 13.75C17.4999 13.336 17.8352 13 18.2499 13C18.6647 13 18.9999 13.336 18.9999 13.75V20.5C18.9999 20.914 18.6647 21.25 18.2499 21.25C17.8352 21.25 17.4999 20.914 17.4999 20.5V13.75Z" fill="white"/>
</svg>
