<svg width="40" height="40" viewBox="0 0 40 40" fill="none" xmlns="http://www.w3.org/2000/svg">
<circle cx="20" cy="20" r="20" fill="black" fill-opacity="0.5"/>
<g clip-path="url(#clip0)">
<path d="M22.121 18.6287C23.2926 19.8003 23.2926 21.6999 22.121 22.8715C20.9494 24.0431 19.0498 24.0431 17.8782 22.8715C16.7066 21.6999 16.7066 19.8003 17.8782 18.6287C19.0498 17.4571 20.9494 17.4571 22.121 18.6287Z" fill="white"/>
<path d="M28.9999 12.5001H26.9271L25.4263 9.5H14.5722L13.0729 12.5016L11.003 12.5053C9.35282 12.5082 8.00948 13.853 8.00806 15.5039L8 27.4998C8 29.1544 9.3455 30.5007 11.0001 30.5007H28.9999C30.6546 30.5007 32 29.1552 32 27.5006V15.5002C32 13.8456 30.6545 12.5001 28.9999 12.5001ZM19.9996 26.7505C16.6912 26.7505 13.9994 24.0588 13.9994 20.7503C13.9994 17.4419 16.6912 14.7501 19.9996 14.7501C23.3081 14.7501 25.9998 17.4419 25.9998 20.7503C25.9998 24.0588 23.3081 26.7505 19.9996 26.7505Z" fill="white"/>
</g>
<defs>
<clipPath id="clip0">
<rect width="24" height="24" fill="white" transform="translate(8 8)"/>
</clipPath>
</defs>
</svg>
