<svg width="143" height="32" viewBox="0 0 143 32" fill="none" xmlns="http://www.w3.org/2000/svg">
<path d="M49.58 23.12C48.6333 23.12 47.7933 22.8733 47.06 22.38C46.34 21.8733 45.7733 21.2133 45.36 20.4C44.96 19.5867 44.76 18.72 44.76 17.8C44.76 16.8133 44.96 15.9133 45.36 15.1C45.7733 14.2733 46.3467 13.6133 47.08 13.12C47.8133 12.6267 48.6533 12.38 49.6 12.38C50.4667 12.38 51.22 12.5933 51.86 13.02C52.5133 13.4467 53.06 13.9867 53.5 14.64V12.56H55.06V22.88C55.06 23.8667 54.82 24.7 54.34 25.38C53.8733 26.06 53.2333 26.5733 52.42 26.92C51.62 27.28 50.7267 27.46 49.74 27.46C48.5667 27.46 47.6067 27.2533 46.86 26.84C46.1133 26.4267 45.4933 25.8667 45 25.16L46.02 24.26C46.4333 24.8733 46.9667 25.3333 47.62 25.64C48.2867 25.9467 48.9933 26.1 49.74 26.1C50.38 26.1 50.9667 25.98 51.5 25.74C52.0467 25.5133 52.48 25.16 52.8 24.68C53.1333 24.2 53.3 23.6 53.3 22.88V21.04C52.9133 21.68 52.38 22.1867 51.7 22.56C51.0333 22.9333 50.3267 23.12 49.58 23.12ZM50.12 21.68C50.6133 21.68 51.0867 21.5667 51.54 21.34C51.9933 21.1133 52.3733 20.82 52.68 20.46C53 20.1 53.2067 19.7267 53.3 19.34V16.34C53.02 15.6333 52.5667 15.0533 51.94 14.6C51.3133 14.1333 50.6533 13.9 49.96 13.9C49.2533 13.9 48.64 14.0933 48.12 14.48C47.6133 14.8667 47.22 15.36 46.94 15.96C46.6733 16.56 46.54 17.1867 46.54 17.84C46.54 18.5333 46.7 19.1733 47.02 19.76C47.34 20.3333 47.7667 20.8 48.3 21.16C48.8467 21.5067 49.4533 21.68 50.12 21.68ZM62.4605 23.2C61.4205 23.2 60.5005 22.9533 59.7005 22.46C58.9138 21.9533 58.3005 21.2933 57.8605 20.48C57.4205 19.6533 57.2005 18.76 57.2005 17.8C57.2005 16.8267 57.4205 15.9333 57.8605 15.12C58.3138 14.2933 58.9338 13.6333 59.7205 13.14C60.5205 12.6333 61.4338 12.38 62.4605 12.38C63.5005 12.38 64.4138 12.6333 65.2005 13.14C66.0005 13.6333 66.6205 14.2933 67.0605 15.12C67.5138 15.9333 67.7405 16.8267 67.7405 17.8C67.7405 18.76 67.5138 19.6533 67.0605 20.48C66.6205 21.2933 66.0071 21.9533 65.2205 22.46C64.4338 22.9533 63.5138 23.2 62.4605 23.2ZM59.0005 17.82C59.0005 18.54 59.1538 19.1933 59.4605 19.78C59.7805 20.3667 60.2005 20.8333 60.7205 21.18C61.2405 21.5133 61.8205 21.68 62.4605 21.68C63.1005 21.68 63.6805 21.5067 64.2005 21.16C64.7338 20.8133 65.1538 20.3467 65.4605 19.76C65.7805 19.16 65.9405 18.5 65.9405 17.78C65.9405 17.06 65.7805 16.4067 65.4605 15.82C65.1538 15.2333 64.7338 14.7667 64.2005 14.42C63.6805 14.0733 63.1005 13.9 62.4605 13.9C61.8205 13.9 61.2405 14.08 60.7205 14.44C60.2005 14.7867 59.7805 15.2533 59.4605 15.84C59.1538 16.4267 59.0005 17.0867 59.0005 17.82ZM80.5531 11.22H76.0131V23H73.2731V11.22H68.7331V8.8H80.5531V11.22ZM84.9233 23.2C83.7766 23.2 82.7899 22.9533 81.9633 22.46C81.1499 21.9533 80.5233 21.2867 80.0833 20.46C79.6433 19.6333 79.4233 18.74 79.4233 17.78C79.4233 16.8067 79.6433 15.9067 80.0833 15.08C80.5366 14.2533 81.1699 13.5933 81.9833 13.1C82.8099 12.5933 83.7899 12.34 84.9233 12.34C86.0566 12.34 87.0299 12.5933 87.8433 13.1C88.6699 13.5933 89.3033 14.2533 89.7433 15.08C90.1833 15.9067 90.4033 16.8067 90.4033 17.78C90.4033 18.74 90.1833 19.6333 89.7433 20.46C89.3033 21.2867 88.6699 21.9533 87.8433 22.46C87.0299 22.9533 86.0566 23.2 84.9233 23.2ZM82.1833 17.78C82.1833 18.3933 82.3033 18.94 82.5433 19.42C82.7833 19.8867 83.1099 20.2533 83.5233 20.52C83.9366 20.7867 84.4033 20.92 84.9233 20.92C85.4299 20.92 85.8899 20.7867 86.3033 20.52C86.7166 20.24 87.0433 19.8667 87.2833 19.4C87.5366 18.92 87.6633 18.3733 87.6633 17.76C87.6633 17.16 87.5366 16.6267 87.2833 16.16C87.0433 15.68 86.7166 15.3067 86.3033 15.04C85.8899 14.76 85.4299 14.62 84.9233 14.62C84.4033 14.62 83.9366 14.76 83.5233 15.04C83.1099 15.3067 82.7833 15.68 82.5433 16.16C82.3033 16.6267 82.1833 17.1667 82.1833 17.78ZM111.736 8.8L107.336 23H104.516L100.916 13.24L97.3961 23H94.5961L90.1961 8.8H93.2161L96.2361 18.92L99.5561 8.8H102.296L105.716 18.92L108.696 8.8H111.736ZM116.994 23.2C115.847 23.2 114.86 22.9533 114.034 22.46C113.22 21.9533 112.594 21.2867 112.154 20.46C111.714 19.6333 111.494 18.74 111.494 17.78C111.494 16.8067 111.714 15.9067 112.154 15.08C112.607 14.2533 113.24 13.5933 114.054 13.1C114.88 12.5933 115.86 12.34 116.994 12.34C118.127 12.34 119.1 12.5933 119.914 13.1C120.74 13.5933 121.374 14.2533 121.814 15.08C122.254 15.9067 122.474 16.8067 122.474 17.78C122.474 18.74 122.254 19.6333 121.814 20.46C121.374 21.2867 120.74 21.9533 119.914 22.46C119.1 22.9533 118.127 23.2 116.994 23.2ZM114.254 17.78C114.254 18.3933 114.374 18.94 114.614 19.42C114.854 19.8867 115.18 20.2533 115.594 20.52C116.007 20.7867 116.474 20.92 116.994 20.92C117.5 20.92 117.96 20.7867 118.374 20.52C118.787 20.24 119.114 19.8667 119.354 19.4C119.607 18.92 119.734 18.3733 119.734 17.76C119.734 17.16 119.607 16.6267 119.354 16.16C119.114 15.68 118.787 15.3067 118.374 15.04C117.96 14.76 117.5 14.62 116.994 14.62C116.474 14.62 116.007 14.76 115.594 15.04C115.18 15.3067 114.854 15.68 114.614 16.16C114.374 16.6267 114.254 17.1667 114.254 17.78ZM130.523 14.84C129.709 14.84 128.983 15 128.342 15.32C127.703 15.6267 127.243 16.0733 126.963 16.66V23H124.283V12.52H126.743V14.76C127.103 14.04 127.569 13.4733 128.143 13.06C128.729 12.6467 129.343 12.42 129.983 12.38C130.263 12.38 130.443 12.3867 130.523 12.4V14.84ZM139.177 23L136.117 18.48L134.697 19.88V23H132.017V8.4H134.697V17.24L138.917 12.54H141.757L137.857 16.98L142.037 23H139.177Z" fill="white"/>
<path d="M16 27L27 5L5 21.4348L16 27Z" fill="#67FFBE"/>
<path d="M16 27L27 5V21.4348L16 27Z" fill="#41DC9A"/>
</svg>
