<svg width="32" height="32" viewBox="0 0 32 32" fill="none" xmlns="http://www.w3.org/2000/svg">
<path fill-rule="evenodd" clip-rule="evenodd" d="M21 14C21 17.3137 18.3137 20 15 20C11.6863 20 9 17.3137 9 14C9 10.6863 11.6863 8 15 8C18.3137 8 21 10.6863 21 14ZM19.3202 20.7344C18.0741 21.5354 16.5913 22 15 22C10.5817 22 7 18.4183 7 14C7 9.58172 10.5817 6 15 6C19.4183 6 23 9.58172 23 14C23 16.1038 22.1879 18.0179 20.8602 19.446L25.7071 24.2929C26.0976 24.6834 26.0976 25.3166 25.7071 25.7071C25.3166 26.0976 24.6834 26.0976 24.2929 25.7071L19.3202 20.7344Z" fill="black"/>
</svg>
