<svg width="60" height="20" viewBox="0 0 60 20" fill="none" xmlns="http://www.w3.org/2000/svg">
<g clip-path="url(#clip0)">
<path d="M25.9998 19.7111H21.1394L24.1795 0.350586H29.0396L25.9998 19.7111Z" fill="#00579F"/>
<path d="M43.6192 0.824255C42.6605 0.432522 41.14 0 39.2598 0C34.46 0 31.08 2.63619 31.0593 6.40515C31.0194 9.18588 33.4792 10.7304 35.319 11.6575C37.1994 12.605 37.8387 13.2234 37.8387 14.0679C37.8195 15.3649 36.3192 15.9628 34.9198 15.9628C32.9793 15.9628 31.9396 15.6545 30.3595 14.9329L29.7195 14.6236L29.0393 18.9696C30.1793 19.5045 32.2795 19.9792 34.46 20C39.5599 20 42.8801 17.4046 42.9194 13.3882C42.9388 11.1842 41.6399 9.49549 38.8396 8.11553C37.1396 7.22968 36.0986 6.63236 36.0986 5.72598C36.1185 4.902 36.9791 4.05804 38.8981 4.05804C40.4782 4.0167 41.6391 4.40789 42.5186 4.79935L42.9582 5.00493L43.6192 0.824255Z" fill="#00579F"/>
<path d="M50.0794 12.8524C50.4797 11.7401 52.0199 7.43545 52.0199 7.43545C51.9997 7.47679 52.4194 6.30268 52.6594 5.5819L52.9991 7.25012C52.9991 7.25012 53.9195 11.8844 54.1194 12.8524C53.3598 12.8524 51.0395 12.8524 50.0794 12.8524ZM56.079 0.350586H52.3195C51.1601 0.350586 50.2793 0.700435 49.7791 1.95694L42.5596 19.7108H47.6595C47.6595 19.7108 48.4991 17.3213 48.6795 16.8067C49.239 16.8067 54.2002 16.8067 54.9199 16.8067C55.0595 17.4864 55.4999 19.7108 55.4999 19.7108H60.0001L56.079 0.350586Z" fill="#00579F"/>
<path d="M17.0798 0.350586L12.3198 13.5526L11.7997 10.8751C10.9197 7.78557 8.15976 4.42888 5.07983 2.75984L9.43978 19.6906H14.5795L22.2193 0.350586H17.0798Z" fill="#00579F"/>
<path d="M7.89994 0.350586H0.0800011L0 0.741771C6.10004 2.3484 10.14 6.2211 11.7998 10.8759L10.0999 1.97802C9.81998 0.741497 8.9599 0.391374 7.89994 0.350586Z" fill="#FAA61A"/>
</g>
<defs>
<clipPath id="clip0">
<rect width="60" height="20" fill="white"/>
</clipPath>
</defs>
</svg>
